<?xml version="1.0" encoding="utf-8"?>
<!-- Generator: Adobe Illustrator 13.0.0, SVG Export Plug-In . SVG Version: 6.00 Build 14948)  -->
<!DOCTYPE svg PUBLIC "-//W3C//DTD SVG 1.1//EN" "http://www.w3.org/Graphics/SVG/1.1/DTD/svg11.dtd">
<svg version="1.1" id="Layer_1" xmlns="http://www.w3.org/2000/svg" xmlns:xlink="http://www.w3.org/1999/xlink" x="0px" y="0px"
	 width="99px" height="72px" viewBox="0 0 99 72" enable-background="new 0 0 99 72" xml:space="preserve">
<g id="Invader_2">
	<g id="b_1_">
		<g>
			<path fill="#DDDDDD" d="M81,0h-9v9h9V0z M45,72v-9H27v9H45z M18,0v9h9V0H18z M90,36v-9h-9v-9h-9V9h-9v9H36V9h-9v9h-9v9H9v9H0v27
				h9v-9h9v9h9v-9h45v9h9v-9h9v9h9V36H90z M36,36h-9v-9h9V36z M72,36h-9v-9h9V36z M54,72h18v-9H54V72z"/>
		</g>
	</g>
	<g id="a_2_" display="none">
		<g display="inline">
			<path fill="#DDDDDD" d="M9,72h9v-9H9V72z M18,0v9h9V0H18z M90,72v-9h-9v9H90z M81,0h-9v9h9V0z M90,9v18h-9v-9h-9V9h-9v9H36V9h-9
				v9h-9v9H9V9H0v36h9v9h9v9h9v-9h45v9h9v-9h9v-9h9V9H90z M36,36h-9v-9h9V36z M72,36h-9v-9h9V36z"/>
		</g>
	</g>
</g>
</svg>
