<?xml version="1.0" encoding="UTF-8" standalone="no"?>
<svg
   xmlns:dc="http://purl.org/dc/elements/1.1/"
   xmlns:cc="http://creativecommons.org/ns#"
   xmlns:rdf="http://www.w3.org/1999/02/22-rdf-syntax-ns#"
   xmlns:svg="http://www.w3.org/2000/svg"
   xmlns="http://www.w3.org/2000/svg"
   xmlns:sodipodi="http://sodipodi.sourceforge.net/DTD/sodipodi-0.dtd"
   xmlns:inkscape="http://www.inkscape.org/namespaces/inkscape"
   version="1.1"
   id="Layer_1"
   x="0px"
   y="0px"
   width="72.168px"
   height="72.167px"
   viewBox="0 0 72.168 72.167"
   enable-background="new 0 0 72.168 72.167"
   xml:space="preserve"
   inkscape:version="0.48.1 r9760"
   sodipodi:docname="invader1.svg"><metadata
   id="metadata3043"><rdf:RDF><cc:Work
       rdf:about=""><dc:format>image/svg+xml</dc:format><dc:type
         rdf:resource="http://purl.org/dc/dcmitype/StillImage" /></cc:Work></rdf:RDF></metadata><defs
   id="defs3041" /><sodipodi:namedview
   pagecolor="#ffffff"
   bordercolor="#666666"
   borderopacity="1"
   objecttolerance="10"
   gridtolerance="10"
   guidetolerance="10"
   inkscape:pageopacity="0"
   inkscape:pageshadow="2"
   inkscape:window-width="930"
   inkscape:window-height="722"
   id="namedview3039"
   showgrid="false"
   inkscape:zoom="3.589"
   inkscape:cx="36.08"
   inkscape:cy="58.37"
   inkscape:window-x="0"
   inkscape:window-y="25"
   inkscape:window-maximized="0"
   inkscape:current-layer="Layer_1" />
	<path
   d="m 8.96,72 c 3.06,0 6.11,0 9.17,0 0,-3.05 0,-6.11 0,-9.16 -3.06,0 -6.11,0 -9.17,0 0,3.05 0,6.11 0,9.16 z M 9.17,53.67 c -3.06,0 -6.11,0 -9.17,0 0,3.05 0,6.11 0,9.16 3.06,0 6.11,0 9.17,0 0,-3.05 0,-6.11 0,-9.16 z m 45.18,18.5 c 3.06,0 6.11,0 9.17,0 0,-3.06 0,-6.11 0,-9.17 -3.06,0 -6.11,0 -9.17,0 0,3.06 0,6.11 0,9.17 z M 72.16,44.83 c 0,-6 0,-12 0,-18 -2.89,0 -5.78,0 -8.67,0 0,-2.83 0,-5.67 0,-8.5 -3.11,0 -6.22,0 -9.33,0 0,-3.05 0,-6.11 0,-9.16 -2.94,0 -5.89,0 -8.83,0 0,-3.06 0,-6.11 0,-9.17 -6.06,0 -12.11,0 -18.17,0 0,3.06 0,6.11 0,9.17 -3,0 -6,0 -9,0 0,3.05 0,6.11 0,9.16 -2.95,0 -5.89,0 -8.84,0 0,2.83 0,5.67 0,8.5 -2.94,0 -5.89,0 -8.83,0 0,6 0,12 0,18 2.91,0 5.81,0 8.72,0 0,3.06 0,6.11 0,9.17 3.06,0 6.11,0 9.17,0 0,-3.05 0,-6.11 0,-9.16 11.92,0 23.85,0 35.77,0 0,3.05 0,6.11 0,9.16 2.94,0 5.88,0 8.82,0 0,3 0,6 0,9 3.06,0 6.11,0 9.17,0 0,-3.05 0,-6.11 0,-9.16 -2.94,0 -5.89,0 -8.83,0 0,-3 0,-6 0,-9 2.95,0 5.92,0 8.85,0 z M 27.32,37.49 c -3.05,0 -6.11,0 -9.16,0 0,-3.06 0,-6.11 0,-9.17 3.06,0 6.11,0 9.17,0 0,3.05 0,6.13 0,9.17 z m 24.95,0 c -3.06,0 -6.11,0 -9.17,0 0,-3.06 0,-6.11 0,-9.17 3.06,0 6.11,0 9.17,0 0,3.06 0,6.11 0,9.17 z"
   id="path3035"
   inkscape:connector-curvature="0" />
	<path
   d="m 0,72 c 3.06,0 6.11,0 9.17,0 0,-3.05 0,-6.11 0,-9.16 -3.06,0 -6.11,0 -9.17,0 0,3.05 0,6.11 0,9.16 z M 63,53.83 c -3,0 -6,0 -9,0 0,-3 0,-6 0,-9 6,0 12,0 18,0 0,-6 0,-12 0,-18 -2.9,0 -5.8,0 -8.7,0 0,-2.83 0,-5.67 0,-8.5 -3.1,0 -6.2,0 -9.3,0 0,-3.05 0,-6.11 0,-9.16 -2.9,0 -5.9,0 -8.8,0 0,-3.06 0,-6.11 0,-9.17 -6.1,0 -12.1,0 -18.2,0 0,3.06 0,6.11 0,9.17 -3,0 -6,0 -9,0 0,3.05 0,6.11 0,9.16 -2.94,0 -5.89,0 -8.83,0 0,2.83 0,5.67 0,8.5 -2.95,0 -5.89,0 -8.84,0 0,6 0,12 0,18 5.89,0 11.78,0 17.67,0 0,2.95 0,5.89 0,8.84 -2.94,0 -5.89,0 -8.83,0 0,3.05 0,6.11 0,9.16 2.94,0 5.89,0 8.83,0 0,2.95 0,5.89 0,8.84 3.1,0 6.1,0 9.2,0 0,-3.06 0,-6.11 0,-9.17 -3,0 -5.9,0 -8.87,0 0,-2.83 0,-5.67 0,-8.5 2.97,0 5.87,0 8.87,0 0,-3.05 0,-6.11 0,-9.16 5.9,0 11.7,0 17.6,0 0,3.05 0,6.11 0,9.16 3,0 6,0 9,0 0,2.89 0,5.78 0,8.67 -2.9,0 -5.9,0 -8.8,0 0,3.05 0,6.11 0,9.16 3.1,0 6.1,0 9.2,0 0,-2.94 0,-5.89 0,-8.83 2.9,0 5.9,0 8.8,0 0,-3.06 0,-6.11 0,-9.17 z M 27.2,37.49 c -3.1,0 -6.1,0 -9.2,0 0,-3.06 0,-6.11 0,-9.17 3.1,0 6.1,0 9.2,0 0,3.06 0,6.11 0,9.17 z m 24.9,0 c -3.1,0 -6.1,0 -9.2,0 0,-3.06 0,-6.11 0,-9.17 3.1,0 6.1,0 9.2,0 0,3.06 0,6.11 0,9.17 z M 63,63 c 0,3.06 0,6.11 0,9.17 3.1,0 6.1,0 9.2,0 0,-3.06 0,-6.11 0,-9.17 -3.1,0 -6.1,0 -9.2,0 z"
   id="path3037"
   inkscape:connector-curvature="0" />
</svg>