<?xml version="1.0" encoding="utf-8"?>
<!-- Generator: Adobe Illustrator 13.0.0, SVG Export Plug-In . SVG Version: 6.00 Build 14948)  -->
<!DOCTYPE svg PUBLIC "-//W3C//DTD SVG 1.1//EN" "http://www.w3.org/Graphics/SVG/1.1/DTD/svg11.dtd">
<svg version="1.1" id="Layer_1" xmlns="http://www.w3.org/2000/svg" xmlns:xlink="http://www.w3.org/1999/xlink" x="0px" y="0px"
	 width="24.8px" height="16.7px" viewBox="0 0 24.8 16.7" enable-background="new 0 0 24.8 16.7" xml:space="preserve">
<g id="ship_3_1_">
	<g>
		<g>
			<path fill="#8C19FF" d="M6.6,7.9c1.1,1.6,3.2,2.5,6.2,2.5c3.3,0,4.9-1.4,5.6-2.6c0.9-1.5,0.9-3.4,0.5-4.4l0,0
				c0,0-1.9-3.4-6.5-3.4C8.2,0,6.5,2.8,6.3,3.2l0,0C5.8,4.3,5.5,6.3,6.6,7.9z M19.3,3.5c0.4,1.2,0.4,2.9-0.4,4.6
				c-0.6,1.3-2.5,3.6-6.1,3.6c-4.1,0-5.9-2.2-6.7-3.5C5.4,7.1,5.3,5.9,5.5,4.8C5.4,5,5.2,5,4.9,5C4.6,5,4.3,4.9,4.3,4.7
				c0-0.2,0.3-0.3,0.7-0.3c0.3,0,0.6,0.1,0.6,0.3C5.7,4.2,5.8,3.8,6,3.4c-3.6,1.3-6,3-6,5.7c0,4.2,5.5,7.6,12.4,7.6
				c6.9,0,12.4-3.4,12.4-7.6C24.8,6.4,22.7,4.8,19.3,3.5z M6.9,13c-0.8,0-1.5-0.4-1.5-0.9s0.7-0.9,1.5-0.9c0.8,0,1.5,0.4,1.5,0.9
				S7.7,13,6.9,13z M21.2,9.7c-0.7,0-1.3-0.3-1.3-0.7c0-0.4,0.6-0.7,1.3-0.7c0.7,0,1.3,0.3,1.3,0.7C22.5,9.4,21.9,9.7,21.2,9.7z"/>
		</g>
	</g>
</g>
</svg>
