<?xml version="1.0" encoding="utf-8"?>
<!-- Generator: Adobe Illustrator 13.0.0, SVG Export Plug-In . SVG Version: 6.00 Build 14948)  -->
<!DOCTYPE svg PUBLIC "-//W3C//DTD SVG 1.1//EN" "http://www.w3.org/Graphics/SVG/1.1/DTD/svg11.dtd">
<svg version="1.1" id="Layer_1" xmlns="http://www.w3.org/2000/svg" xmlns:xlink="http://www.w3.org/1999/xlink" x="0px" y="0px"
	 width="108px" height="72px" viewBox="0 0 108 72" enable-background="new 0 0 108 72" xml:space="preserve">
<g id="invader_3">
	<g id="b_2_">
		<g>
			<path fill="#DDDDDD" d="M45,63h18v-9H45V63z M108,45V18h-9V9H72V0H36v9H9v9H0v27h18v9H9v9h9v9h18v-9h-9v-9h18v-9h18v9h18v9h-9v9
				h18v-9h9v-9h-9v-9H108z M45,36H27v-9h18V36z M81,36H63v-9h18V36z"/>
		</g>
	</g>
	<g id="a" display="none">
		<g display="inline">
			<path fill="#DDDDDD" d="M108,144v-9h-9v9H108z M45,135h18v-9H45V135z M0,144h9v-9H0V144z M108,117V90h-9v-9H72v-9H36v9H9v9H0v27
				h27v9H9v9h9v9h9v-9h9v-9h9v-9h18v9h9v9h9v9h9v-9h9v-9H81v-9H108z M45,108H27v-9h18V108z M63,108v-9h18v9H63z"/>
		</g>
	</g>
</g>
</svg>
