<?xml version="1.0" encoding="utf-8"?>
<!-- Generator: Adobe Illustrator 13.0.0, SVG Export Plug-In . SVG Version: 6.00 Build 14948)  -->
<!DOCTYPE svg PUBLIC "-//W3C//DTD SVG 1.1//EN" "http://www.w3.org/Graphics/SVG/1.1/DTD/svg11.dtd">
<svg version="1.1" id="Layer_1" xmlns="http://www.w3.org/2000/svg" xmlns:xlink="http://www.w3.org/1999/xlink" x="0px" y="0px"
	 width="72.158px" height="72.167px" viewBox="0 0 72.158 72.167" enable-background="new 0 0 72.158 72.167" xml:space="preserve">
<g id="Invader_1">
	<g id="b">
		<g>
			<path fill="#DDDDDD" d="M8.965,72h9.167v-9.164H8.965V72z M9.167,53.667H0v9.166h9.167V53.667z M54.353,72.167h9.168v-9.166
				h-9.168V72.167z M72.158,44.835v-18h-8.667v-8.5h-9.333V9.167h-8.833V0H27.158v9.167h-9v9.167H9.325v8.5H0.491v18h8.723V54h9.167
				v-9.164h35.765V54h8.826v9h9.168v-9.164h-8.828v-9H72.158L72.158,44.835z M27.325,37.486h-9.167v-9.165h9.167V37.486z
				 M52.265,37.486h-9.168v-9.165h9.168V37.486z"/>
		</g>
	</g>
	<g id="a_1_" display="none">
		<g display="inline">
			<path fill="#DDDDDD" d="M0.453,74.294H9.62V65.13H0.453V74.294z M63.454,65.296v9.166h9.167v-9.166H63.454z M63.454,56.13h-9v-9
				h17.999v-18h-8.667v-8.5h-9.333v-9.167H45.62V2.295H27.453v9.167h-9v9.167H9.62v8.5H0.786v18h17.667v8.834H9.62v9.164h8.833
				v8.834h9.167v-9.166h-8.833v-8.5h8.833V47.13h17.667v9.164h9v8.668h-8.833v9.166h9.167v-8.834h8.833V56.13z M27.62,39.781h-9.167
				v-9.165h9.167V39.781z M52.56,39.781h-9.168v-9.165h9.168V39.781z"/>
		</g>
	</g>
</g>
</svg>
